<svg xmlns="http://www.w3.org/2000/svg" fill="none" viewBox="0 0 99 61"><path fill="#1e293b" d="M0 0h99v61H0z"/><g clip-path="url(#logoClip)"><g fill="#949060"><path d="M31.196 10.304c-.97-1.845-1.636-3.537-2.059-4.986h-.606c.453 1.45.726 2.872.91 4.262.183 1.33.303 3.08.303 5.198v.546l5.056 9.699v-7.794l-3.604-6.921zm2.556 16.952c0 3.99.333 4.452.94 7.141H27.85c-.273-.937-1.03-2.207-2.272-3.869L13.86 15.118v9.82c0 2.143.06 3.898.243 5.288a22 22 0 0 0 .97 4.171h-7.51c.483-1.449.756-2.872.94-4.231.183-1.36.273-3.111.273-5.229V9.527C7.414 7.716 6.445 6.78 4.899 5.54v-.15h8.571c.243.755.607 1.48 1 2.178.393.664 1.059 1.572 2.028 2.808L28.703 26.45v-7.978l5.057 8.784zm-1.635-21.68h3.963c-1.343 2.775-1.403 6.394-1.403 6.394s-1.782-4.202-2.556-6.394zm42.229 6.301-2.814 4.986 2.212 3.805 2.784-4.956zm19.759-5.715v.09c-.85.908-1.786 2.267-2.879 4.232l-6.662 11.753v4.624c0 3.536.333 5.77 1.243 8.34H76.91c.88-2.54 1.243-4.744 1.243-8.34v-4.505l-1.696-2.416 2.804-4.941 1.587 2.248 3.784-6.707c.726-1.33 1.089-2.57 1.089-3.687 0-.302-.03-.515-.09-.694h8.474zM71.12 12.75s-3.166-5.527-4.315-6.494v-.09h8.024c-.06.273-.232.9-.075 1.602-1.882 2.652-3.634 4.983-3.634 4.983"/><path d="M58.148 0c.303.754.452 1.479.452 2.207 0 1.995-1.119 5.016-3.42 9.094l-2.059 3.717-2.118 3.746-7.965 14.293L34.8 17.22S29.56 6.767 29.138 5.315c-.274-1.087-.424-2.055-.424-2.932 0-.878.12-1.632.394-2.387H19.9v.15c1.999 1.479 4.724 5.408 7.115 9.942l2.725 5.228 5.057 9.7 6.905 13.236h2.755l8.63-15.47 2.119-3.776 5.36-9.61c1.242-2.266 2.361-4.018 3.33-5.348A32.5 32.5 0 0 1 67.68.149V0h-9.54z"/><path d="M77.618 0a5.8 5.8 0 0 1 .422 2.207c0 1.995-1.089 5.016-3.39 9.094l-.304.576-2.814 4.986-9.024 16.197-7.298-14.05-2.089-3.989-2.451-4.713c-1.666-3.204-2.482-5.864-2.482-7.918 0-.848.12-1.632.363-2.386h-9.173v.15c1.998 1.478 4.723 5.407 7.115 9.941l4.514 8.672 2.088 4.019 8.084 15.47h2.755l9.81-17.588 2.784-4.956 3.511-6.315c1.243-2.267 2.362-4.019 3.331-5.349A32.5 32.5 0 0 1 87.154.149V0h-9.54z"/></g><path fill="#928f61" d="M99 41.516H0v3.294h99z"/><path fill="#949060" d="M99 47.663H0V48.9h99zm-84.452 6.596h.696l3.006 6.629h-.801l-.771-1.74h-3.59l-.782 1.74h-.763zm1.838 4.209-1.497-3.347-1.509 3.347zm5.049-4.164h2.29c2.074 0 3.507 1.419 3.507 3.271v.019c0 1.852-1.433 3.29-3.507 3.29h-2.29zm.745.687v5.21h1.545c1.67 0 2.733-1.128 2.733-2.585v-.018c0-1.457-1.063-2.603-2.733-2.603H22.18zm7.519-.687h.83l2.348 5.669 2.354-5.67h.8l-2.836 6.63h-.66zm8.837 3.309v-.02c0-1.814 1.366-3.402 3.372-3.402s3.353 1.57 3.353 3.384v.019c0 1.815-1.366 3.402-3.372 3.402s-3.353-1.568-3.353-3.383m5.954 0v-.02c0-1.493-1.093-2.718-2.6-2.718-1.51 0-2.583 1.203-2.583 2.7v.019c0 1.494 1.093 2.719 2.6 2.719 1.51 0 2.583-1.203 2.583-2.7m3.938 0v-.02c0-1.859 1.396-3.402 3.335-3.402 1.197 0 1.912.422 2.57 1.042l-.508.546c-.558-.527-1.18-.904-2.074-.904-1.46 0-2.552 1.184-2.552 2.7v.019c0 1.524 1.104 2.719 2.552 2.719.906 0 1.497-.348 2.13-.949l.49.478c-.689.695-1.44 1.158-2.638 1.158-1.905 0-3.309-1.494-3.309-3.384zm11.569-3.354h.696l3.005 6.629h-.8l-.772-1.74h-3.59l-.781 1.74h-.764zm1.837 4.209-1.497-3.347-1.508 3.347zm4.372-.855v-.02c0-1.859 1.396-3.402 3.335-3.402 1.197 0 1.912.422 2.57 1.042l-.508.546c-.558-.527-1.179-.904-2.074-.904-1.46 0-2.552 1.184-2.552 2.7v.019c0 1.524 1.104 2.719 2.552 2.719.906 0 1.498-.348 2.13-.949l.49.478c-.688.695-1.44 1.158-2.638 1.158-1.905 0-3.309-1.494-3.309-3.384zm9.196-3.309h.745v6.58h-.745zm6.998-.045h.697l3.005 6.629h-.8l-.772-1.74h-3.589l-.782 1.74h-.764zm1.838 4.209-1.497-3.347-1.508 3.347z"/></g><defs><clipPath id="logoClip"><path fill="#fff" d="M0 0h99v61H0z"/></clipPath></defs></svg>