<svg xmlns="http://www.w3.org/2000/svg" viewBox="0 0 99 99" fill="none">
  <rect width="99" height="99" fill="#3D4756"/>
  <!-- NWY mark, translated to center vertically (mark height ~38px, centering offset ~30.5) -->
  <g transform="translate(0, 30.5)">
    <path d="M31.196 10.3042C30.2266 8.45925 29.5604 6.7674 29.1375 5.31831H28.5311C28.984 6.7674 29.2572 8.19035 29.4406 9.57968C29.624 10.9093 29.7438 12.6609 29.7438 14.7785V15.3238L34.8003 25.023V17.2285L31.196 10.308V10.3042Z" fill="#949060"/>
    <path d="M33.7523 27.2564C33.7523 31.2451 34.0854 31.7082 34.6917 34.3972H27.85C27.5767 33.4598 26.8207 32.19 25.5781 30.528L13.8595 15.1183V24.9371C13.8595 27.0808 13.9194 28.8362 14.1028 30.2255C14.2862 31.5849 14.5856 32.9743 15.0721 34.3972H7.56414C8.04695 32.9481 8.32018 31.5252 8.50357 30.1657C8.68697 28.8063 8.77679 27.0547 8.77679 24.9371V9.5274C7.41443 7.71604 6.44505 6.77861 4.89929 5.53866V5.38927H13.4702C13.7135 6.1437 14.0766 6.86824 14.4695 7.56664C14.8625 8.23143 15.5288 9.13898 16.4981 10.3752L28.7033 26.4496V18.4722L33.7598 27.2564H33.7523Z" fill="#949060"/>
    <path d="M32.1167 5.57601H36.0803C34.7366 8.35095 34.6768 11.9699 34.6768 11.9699C34.6768 11.9699 32.8952 7.76832 32.1205 5.57601H32.1167Z" fill="#949060"/>
    <path d="M74.3464 11.8766L71.5318 16.8625L73.7438 20.6682L76.5284 15.7122L74.3464 11.8766Z" fill="#949060"/>
    <path d="M94.1045 6.16237V6.25201C93.2548 7.15955 92.3192 8.51901 91.2263 10.4835L84.5641 22.2368V26.8605C84.5641 30.3973 84.8972 32.6307 85.8067 35.2002H76.9102C77.7897 32.6606 78.1528 30.4571 78.1528 26.8605V22.3563L76.4573 19.9399L79.2606 14.9988L80.8476 17.2472L84.6315 10.5395C85.3576 9.20994 85.7207 7.97 85.7207 6.8533C85.7207 6.55079 85.6907 6.33791 85.6308 6.15864H94.1045V6.16237Z" fill="#949060"/>
    <path d="M71.1201 12.7505C71.1201 12.7505 67.9537 7.22305 66.8047 6.25574V6.16611H74.8292C74.7693 6.43874 74.5971 7.06618 74.7543 7.76832C72.8717 10.42 71.1201 12.7505 71.1201 12.7505Z" fill="#949060"/>
    <path d="M58.1477 0C58.4508 0.754424 58.6005 1.47897 58.6005 2.20725C58.6005 4.20162 57.4815 7.22305 55.1796 11.3014L53.1211 15.0175L51.0027 18.7635L43.0381 33.0565L34.8003 17.221C34.8003 17.221 29.5604 6.7674 29.1375 5.31458C28.8642 4.22776 28.7145 3.26045 28.7145 2.38278C28.7145 1.50511 28.8343 0.750689 29.1075 -0.00373477H19.9003V0.145656C21.8989 1.62463 24.6237 5.5536 27.0153 10.0876L29.74 15.3163L34.7965 25.0155L41.7019 38.2515H44.4566L53.0874 22.7821L55.2059 19.0062L60.5655 9.39668C61.8081 7.12968 62.9272 5.37807 63.8966 4.04849C64.9558 2.74879 66.1984 1.44909 67.6805 0.149391V0H58.1402H58.1477Z" fill="#949060"/>
    <path d="M77.6176 0C77.9207 0.754424 78.0405 1.47897 78.0405 2.20725C78.0405 4.20162 76.9513 7.22305 74.6495 11.3014L74.3464 11.8766L71.5318 16.8625L62.508 33.0602L55.2096 19.01L53.1211 15.0212L50.6696 10.308C49.0041 7.10353 48.1882 4.44438 48.1882 2.39025C48.1882 1.54246 48.3079 0.758158 48.5512 0.00373477H39.3777V0.153126C41.3763 1.63209 44.1011 5.56107 46.4927 10.0951L51.0065 18.7672L53.0949 22.7858L61.1793 38.2553H63.934L73.7438 20.6682L76.5284 15.7122L80.0391 9.39668C81.2817 7.12968 82.4008 5.37807 83.3702 4.04849C84.4294 2.74879 85.672 1.44909 87.1541 0.149391V0H77.6138L77.6176 0Z" fill="#949060"/>
  </g>
</svg>
