<svg xmlns="http://www.w3.org/2000/svg" viewBox="0 0 1200 630" fill="none">
  <rect width="1200" height="630" fill="#1E293B"/>
  <!-- Logo centered: original 99x61, scale to ~400x247, centered at (600,315) -->
  <g transform="translate(400, 191) scale(4.04)">
    <g clip-path="url(#logoClip)">
      <g>
        <path d="M31.196 10.3042C30.2266 8.45925 29.5604 6.7674 29.1375 5.31831H28.5311C28.984 6.7674 29.2572 8.19035 29.4406 9.57968C29.624 10.9093 29.7438 12.6609 29.7438 14.7785V15.3238L34.8003 25.023V17.2285L31.196 10.308V10.3042Z" fill="#949060"/>
        <path d="M33.7523 27.2564C33.7523 31.2451 34.0854 31.7082 34.6917 34.3972H27.85C27.5767 33.4598 26.8207 32.19 25.5781 30.528L13.8595 15.1183V24.9371C13.8595 27.0808 13.9194 28.8362 14.1028 30.2255C14.2862 31.5849 14.5856 32.9743 15.0721 34.3972H7.56414C8.04695 32.9481 8.32018 31.5252 8.50357 30.1657C8.68697 28.8063 8.77679 27.0547 8.77679 24.9371V9.5274C7.41443 7.71604 6.44505 6.77861 4.89929 5.53866V5.38927H13.4702C13.7135 6.1437 14.0766 6.86824 14.4695 7.56664C14.8625 8.23143 15.5288 9.13898 16.4981 10.3752L28.7033 26.4496V18.4722L33.7598 27.2564H33.7523Z" fill="#949060"/>
        <path d="M32.1167 5.57601H36.0803C34.7366 8.35095 34.6768 11.9699 34.6768 11.9699C34.6768 11.9699 32.8952 7.76832 32.1205 5.57601H32.1167Z" fill="#949060"/>
        <path d="M74.3464 11.8766L71.5318 16.8625L73.7438 20.6682L76.5284 15.7122L74.3464 11.8766Z" fill="#949060"/>
        <path d="M94.1045 6.16237V6.25201C93.2548 7.15955 92.3192 8.51901 91.2263 10.4835L84.5641 22.2368V26.8605C84.5641 30.3973 84.8972 32.6307 85.8067 35.2002H76.9102C77.7897 32.6606 78.1528 30.4571 78.1528 26.8605V22.3563L76.4573 19.9399L79.2606 14.9988L80.8476 17.2472L84.6315 10.5395C85.3576 9.20994 85.7207 7.97 85.7207 6.8533C85.7207 6.55079 85.6907 6.33791 85.6308 6.15864H94.1045V6.16237Z" fill="#949060"/>
        <path d="M71.1201 12.7505C71.1201 12.7505 67.9537 7.22305 66.8047 6.25574V6.16611H74.8292C74.7693 6.43874 74.5971 7.06618 74.7543 7.76832C72.8717 10.42 71.1201 12.7505 71.1201 12.7505Z" fill="#949060"/>
        <g>
          <path d="M58.1477 0C58.4508 0.754424 58.6005 1.47897 58.6005 2.20725C58.6005 4.20162 57.4815 7.22305 55.1796 11.3014L53.1211 15.0175L51.0027 18.7635L43.0381 33.0565L34.8003 17.221C34.8003 17.221 29.5604 6.7674 29.1375 5.31458C28.8642 4.22776 28.7145 3.26045 28.7145 2.38278C28.7145 1.50511 28.8343 0.750689 29.1075 -0.00373477H19.9003V0.145656C21.8989 1.62463 24.6237 5.5536 27.0153 10.0876L29.74 15.3163L34.7965 25.0155L41.7019 38.2515H44.4566L53.0874 22.7821L55.2059 19.0062L60.5655 9.39668C61.8081 7.12968 62.9272 5.37807 63.8966 4.04849C64.9558 2.74879 66.1984 1.44909 67.6805 0.149391V0H58.1402H58.1477Z" fill="#949060"/>
          <path d="M77.6176 0C77.9207 0.754424 78.0405 1.47897 78.0405 2.20725C78.0405 4.20162 76.9513 7.22305 74.6495 11.3014L74.3464 11.8766L71.5318 16.8625L62.508 33.0602L55.2096 19.01L53.1211 15.0212L50.6696 10.308C49.0041 7.10353 48.1882 4.44438 48.1882 2.39025C48.1882 1.54246 48.3079 0.758158 48.5512 0.00373477H39.3777V0.153126C41.3763 1.63209 44.1011 5.56107 46.4927 10.0951L51.0065 18.7672L53.0949 22.7858L61.1793 38.2553H63.934L73.7438 20.6682L76.5284 15.7122L80.0391 9.39668C81.2817 7.12968 82.4008 5.37807 83.3702 4.04849C84.4294 2.74879 85.672 1.44909 87.1541 0.149391V0H77.6138L77.6176 0Z" fill="#949060"/>
        </g>
      </g>
      <path d="M99 47.6631H0V48.8993H99V47.6631Z" fill="#949060"/>
      <g>
        <path d="M14.5481 54.2587H15.2443L18.2497 60.888H17.4488L16.6778 59.1476H13.0885L12.3062 60.888H11.5427L14.5481 54.2587ZM16.3858 58.4678L14.8887 55.1215L13.3804 58.4678H16.3858Z" fill="#949060"/>
        <path d="M21.4348 54.3036H23.7254C25.7989 54.3036 27.2324 55.7228 27.2324 57.5752V57.5939C27.2324 59.4463 25.7989 60.8842 23.7254 60.8842H21.4348V54.3036ZM22.1797 54.9908V60.2008H23.7254C25.3947 60.2008 26.4576 59.0729 26.4576 57.6163V57.5976C26.4576 56.1411 25.3947 54.9945 23.7254 54.9945H22.1797V54.9908Z" fill="#949060"/>
        <path d="M29.6989 54.3036H30.5298L32.8765 59.9729L35.2307 54.3036H36.0316L33.1946 60.9328H32.5359L29.6989 54.3036Z" fill="#949060"/>
        <path d="M38.5356 57.6126V57.5939C38.5356 55.7788 39.9017 54.1915 41.9078 54.1915C43.9139 54.1915 45.2613 55.7601 45.2613 57.5752V57.5939C45.2613 59.409 43.8952 60.9963 41.8891 60.9963C39.8829 60.9963 38.5356 59.4277 38.5356 57.6126ZM44.4903 57.6126V57.5939C44.4903 56.1 43.3974 54.875 41.8891 54.875C40.3807 54.875 39.3066 56.0776 39.3066 57.5752V57.5939C39.3066 59.0878 40.3995 60.3128 41.9078 60.3128C43.4161 60.3128 44.4903 59.1102 44.4903 57.6126Z" fill="#949060"/>
        <path d="M48.4277 57.6126V57.5939C48.4277 55.734 49.8238 54.1915 51.7625 54.1915C52.9602 54.1915 53.6751 54.6135 54.3338 55.2335L53.8248 55.7788C53.2671 55.2522 52.6458 54.875 51.7513 54.875C50.2916 54.875 49.1987 56.0589 49.1987 57.5752V57.5939C49.1987 59.1177 50.3028 60.3128 51.7513 60.3128C52.657 60.3128 53.2484 59.9655 53.8809 59.3642L54.3712 59.8422C53.6825 60.5369 52.9303 61 51.7326 61C49.8275 61 48.424 59.5061 48.424 57.6163L48.4277 57.6126Z" fill="#949060"/>
        <path d="M59.9966 54.2587H60.6928L63.6982 60.888H62.8972L62.1262 59.1476H58.5369L57.7547 60.888H56.9912L59.9966 54.2587ZM61.8343 58.4678L60.3372 55.1215L58.8288 58.4678H61.8343Z" fill="#949060"/>
        <path d="M66.2059 57.6126V57.5939C66.2059 55.734 67.6019 54.1915 69.5407 54.1915C70.7383 54.1915 71.4532 54.6135 72.1119 55.2335L71.6029 55.7788C71.0453 55.2522 70.424 54.875 69.5294 54.875C68.0698 54.875 66.9769 56.0589 66.9769 57.5752V57.5939C66.9769 59.1177 68.081 60.3128 69.5294 60.3128C70.4352 60.3128 71.0265 59.9655 71.6591 59.3642L72.1494 59.8422C71.4607 60.5369 70.7084 61 69.5107 61C67.6056 61 66.2021 59.5061 66.2021 57.6163L66.2059 57.6126Z" fill="#949060"/>
        <path d="M75.4018 54.3036H76.1466V60.8842H75.4018V54.3036Z" fill="#949060"/>
        <path d="M82.4008 54.2587H83.097L86.1024 60.888H85.3015L84.5305 59.1476H80.9411L80.1589 60.888H79.3954L82.4008 54.2587ZM84.2385 58.4678L82.7414 55.1215L81.2331 58.4678H84.2385Z" fill="#949060"/>
      </g>
    </g>
    <defs>
      <clipPath id="logoClip">
        <rect width="99" height="61" fill="white"/>
      </clipPath>
    </defs>
  </g>
</svg>
